<?xml version="1.0" encoding="UTF-8" standalone="no"?>
<svg
   xmlns="http://www.w3.org/2000/svg"
   version="1.1"
   viewBox="0 0 110.06541 21.580095"
   height="21.580095mm"
   width="110.06541mm">
  <path
     id="a"
     style="fill:#ee2523;fill-opacity:1;fill-rule:nonzero;stroke:none;stroke-width:0.35277778"
     d="M 11.360278,11.32571 H 6.163156 l -0.0014,-1.55716 -3.091745,3.0921 3.092098,3.09209 -7.06e-4,-1.55716 H 12.0602 c 1.305278,-7e-4 2.363611,-1.05904 2.36467,-2.36396 V 10.25538 H 11.360289 Z M 12.060895,3.07036 5.463245,3.07 C 4.158673,3.07071 3.099987,4.12904 3.099281,5.43467 l 7.06e-4,5.93161 3.061758,-3.06176 3.53e-4,3.5e-4 0.0011,-2.16958 h 5.197475 v 1.04916 h 3.06458 V 5.43538 C 14.424901,4.12975 13.36692,3.07071 12.060937,3.07036" />
  <path
     id="b"
     style="fill:#858389;fill-opacity:1;fill-rule:nonzero;stroke:none;stroke-width:0.35277778"
     d="m 15.491834,13.27523 -3.53e-4,2.17029 H 10.294006 V 14.3953 h -3.06458 v 1.75048 c 7.05e-4,1.30563 1.058686,2.36432 2.363611,2.36432 h 6.596944 c 1.306336,0 2.36467,-1.05833 2.36467,-2.36502 v -5.9309 l -3.062817,3.0614 z m -5.197828,-3.02013 5.197475,3.5e-4 3.53e-4,1.55575 3.091744,-3.09139 -3.091391,-3.09139 -3.53e-4,1.55645 -5.897386,3.6e-4 c -1.306336,0 -2.364669,1.05798 -2.364317,2.36396 v 1.77624 h 3.063875 z" />
  <path
     id="c"
     style="fill:#858389;fill-opacity:1;fill-rule:nonzero;stroke:none;stroke-width:0.39586571"
     d="m 26.597457,8.17041 c 0.798857,0 1.523687,0.32263 2.05098,0.84438 L 29.833659,7.83076 C 29.002737,7.00577 27.858685,6.49511 26.597457,6.49511 c -2.532748,0 -4.593625,2.0581 -4.593625,4.58848 0,2.52918 2.060877,4.58729 4.593625,4.58729 1.261228,0 2.40528,-0.51027 3.236202,-1.33526 l -1.185222,-1.18364 c -0.527293,0.52175 -1.252123,0.84439 -2.05098,0.84439 -1.608006,0 -2.916342,-1.30676 -2.916342,-2.91278 0,-1.60643 1.308336,-2.91318 2.916342,-2.91318 M 33.713539,9.8085 31.792007,6.58497 h -1.961119 l 3.039853,5.10033 v 3.72549 h 1.6852 V 11.6853 L 37.59619,6.58497 h -1.961911 z m 10.15158,1.11199 c 0.368551,-0.45762 0.590632,-1.03756 0.590632,-1.66857 0,-1.47223 -1.199473,-2.66972 -2.673281,-2.66972 l -3.152675,0.003 v 8.99723 l 3.457491,-0.002 c 1.473808,0 2.672885,-1.19789 2.672885,-2.66971 0,-0.79094 -0.346382,-1.50073 -0.895052,-1.99002 M 40.31262,8.26365 h 1.46985 c 0.545503,0 0.989268,0.44376 0.989268,0.98848 0,0.54431 -0.443765,0.98768 -0.989268,0.98768 h -1.46985 z m 1.774666,5.63475 h -1.773082 v -1.97616 h 1.773082 c 0.545107,0 0.989269,0.44376 0.989269,0.98848 0,0.54471 -0.444162,0.98768 -0.989269,0.98768 m 4.810956,1.68401 h 5.122106 v -1.68084 h -3.439281 v -1.97775 h 2.417156 V 10.24377 H 48.581067 V 8.26563 h 3.439281 V 6.58518 H 46.898242 Z M 60.650221,9.89343 c 0,-1.82415 -1.485289,-3.30825 -3.312605,-3.30825 l -2.761559,7.9e-4 v 8.99644 h 1.68243 V 8.27236 h 1.079129 c 0.895053,0 1.62305,0.7272 1.62305,1.62107 0,0.89386 -0.727997,1.62107 -1.62305,1.62107 h -0.36578 l 1.75804,4.06791 h 1.832067 l -1.296857,-3.00264 c 0.837256,-0.60013 1.385135,-1.5795 1.385135,-2.68634 m 8.031719,2.32096 -4.017245,-5.62921 h -1.778229 v 8.99723 h 1.682033 V 9.34595 l 4.450322,6.23646 h 1.345548 V 6.58518 H 68.68194 Z m 4.314144,3.36802 h 5.122502 v -1.68084 h -3.439677 v -1.97775 h 2.417552 V 10.24377 H 74.678909 V 8.26563 h 3.439677 V 6.58518 h -5.122502 z m 14.244832,0 h 1.682429 V 6.58518 H 87.240916 Z M 79.408317,8.26563 h 2.336399 v 7.31678 h 1.682825 V 8.26563 h 2.336795 V 6.58518 h -6.356019 z m 15.543666,-0.095 c 0.798857,0 1.523688,0.32263 2.050981,0.84438 L 98.188581,7.83098 C 97.357263,7.00599 96.213212,6.49533 94.951983,6.49533 c -2.532748,0 -4.593625,2.0581 -4.593625,4.58848 0,2.52918 2.060877,4.58729 4.593625,4.58729 1.261229,0 2.40528,-0.51027 3.236598,-1.33526 L 97.002964,13.1522 c -0.527293,0.52175 -1.252124,0.84439 -2.050981,0.84439 -1.608006,0 -2.916342,-1.30676 -2.916342,-2.91278 0,-1.60643 1.308336,-2.91318 2.916342,-2.91318 m 7.756987,-2.25802 -4.286828,9.66981 h 1.840378 l 0.59499,-1.34515 h 3.70174 l 0.59538,1.34515 h 1.84078 z m -1.10605,6.64421 1.10605,-2.49395 1.10486,2.49395 z" />
</svg>
